{
	"asset":{
		"generator":"Khronos glTF Blender I/O v3.5.30",
		"version":"2.0"
	},
	"scene":0,
	"scenes":[
		{
			"name":"Scene",
			"nodes":[
				2
			]
		}
	],
	"nodes":[
		{
			"mesh":0,
			"name":"chopstick",
			"rotation":[
				0,
				0.28485187888145447,
				0,
				0.9585716128349304
			],
			"translation":[
				0.08146316558122635,
				0.12852656841278076,
				0.15951873362064362
			]
		},
		{
			"mesh":0,
			"name":"chopstick.001",
			"rotation":[
				0,
				-0.3370952308177948,
				0,
				0.9414705634117126
			],
			"translation":[
				-0.05520639196038246,
				0.12852656841278076,
				0.14345526695251465
			]
		},
		{
			"children":[
				0,
				1
			],
			"mesh":1,
			"name":"chinese"
		}
	],
	"materials":[
		{
			"name":"brown",
			"pbrMetallicRoughness":{
				"baseColorFactor":[
					1,
					0.4295433461666107,
					0.20970113575458527,
					1
				],
				"metallicFactor":0
			}
		},
		{
			"name":"brownLight",
			"pbrMetallicRoughness":{
				"baseColorFactor":[
					0.9786729216575623,
					0.6431110501289368,
					0.36741122603416443,
					1
				],
				"metallicFactor":0
			}
		},
		{
			"name":"white",
			"pbrMetallicRoughness":{
				"baseColorFactor":[
					0.8796223402023315,
					0.8879231810569763,
					0.921582043170929,
					1
				],
				"metallicFactor":0
			}
		},
		{
			"name":"red",
			"pbrMetallicRoughness":{
				"baseColorFactor":[
					0.8069523572921753,
					0.09084171056747437,
					0.08650045096874237,
					1
				],
				"metallicFactor":0
			}
		},
		{
			"name":"green",
			"pbrMetallicRoughness":{
				"baseColorFactor":[
					0.145167276263237,
					0.7077566385269165,
					0.443433552980423,
					1
				],
				"metallicFactor":0
			}
		}
	],
	"meshes":[
		{
			"name":"Mesh chopstick",
			"primitives":[
				{
					"attributes":{
						"POSITION":0,
						"TEXCOORD_0":1,
						"NORMAL":2
					},
					"indices":3,
					"material":0
				}
			]
		},
		{
			"name":"Mesh chinese",
			"primitives":[
				{
					"attributes":{
						"POSITION":4,
						"TEXCOORD_0":5,
						"NORMAL":6
					},
					"indices":7,
					"material":1
				},
				{
					"attributes":{
						"POSITION":8,
						"TEXCOORD_0":9,
						"NORMAL":10
					},
					"indices":11,
					"material":2
				},
				{
					"attributes":{
						"POSITION":12,
						"TEXCOORD_0":13,
						"NORMAL":14
					},
					"indices":15,
					"material":3
				},
				{
					"attributes":{
						"POSITION":16,
						"TEXCOORD_0":17,
						"NORMAL":18
					},
					"indices":19,
					"material":4
				}
			]
		}
	],
	"accessors":[
		{
			"bufferView":0,
			"componentType":5126,
			"count":24,
			"max":[
				0.019999999552965164,
				0.43854889273643494,
				0
			],
			"min":[
				0,
				0,
				-0.1309574544429779
			],
			"type":"VEC3"
		},
		{
			"bufferView":1,
			"componentType":5126,
			"count":24,
			"type":"VEC2"
		},
		{
			"bufferView":2,
			"componentType":5126,
			"count":24,
			"type":"VEC3"
		},
		{
			"bufferView":3,
			"componentType":5123,
			"count":36,
			"type":"SCALAR"
		},
		{
			"bufferView":4,
			"componentType":5126,
			"count":64,
			"max":[
				0.12950289249420166,
				0.3567360043525696,
				0.12249800562858582
			],
			"min":[
				-0.12950289249420166,
				0.27673599123954773,
				-0.12249800562858582
			],
			"type":"VEC3"
		},
		{
			"bufferView":5,
			"componentType":5126,
			"count":64,
			"type":"VEC2"
		},
		{
			"bufferView":6,
			"componentType":5126,
			"count":64,
			"type":"VEC3"
		},
		{
			"bufferView":7,
			"componentType":5123,
			"count":132,
			"type":"SCALAR"
		},
		{
			"bufferView":8,
			"componentType":5126,
			"count":152,
			"max":[
				0.27876317501068115,
				0.38260918855667114,
				0.22692491114139557
			],
			"min":[
				-0.27876317501068115,
				0,
				-0.22692491114139557
			],
			"type":"VEC3"
		},
		{
			"bufferView":9,
			"componentType":5126,
			"count":152,
			"type":"VEC2"
		},
		{
			"bufferView":10,
			"componentType":5126,
			"count":152,
			"type":"VEC3"
		},
		{
			"bufferView":11,
			"componentType":5123,
			"count":318,
			"type":"SCALAR"
		},
		{
			"bufferView":12,
			"componentType":5126,
			"count":36,
			"max":[
				0.1564423143863678,
				0.27673599123954773,
				0.14943744242191315
			],
			"min":[
				-0.1564423143863678,
				0,
				-0.14943744242191315
			],
			"type":"VEC3"
		},
		{
			"bufferView":13,
			"componentType":5126,
			"count":36,
			"type":"VEC2"
		},
		{
			"bufferView":14,
			"componentType":5126,
			"count":36,
			"type":"VEC3"
		},
		{
			"bufferView":15,
			"componentType":5123,
			"count":54,
			"type":"SCALAR"
		},
		{
			"bufferView":16,
			"componentType":5126,
			"count":12,
			"max":[
				0.056650109589099884,
				0.3567360043525696,
				0.05157385766506195
			],
			"min":[
				-0.038942016661167145,
				0.3567360043525696,
				-0.04631353169679642
			],
			"type":"VEC3"
		},
		{
			"bufferView":17,
			"componentType":5126,
			"count":12,
			"type":"VEC2"
		},
		{
			"bufferView":18,
			"componentType":5126,
			"count":12,
			"type":"VEC3"
		},
		{
			"bufferView":19,
			"componentType":5123,
			"count":18,
			"type":"SCALAR"
		}
	],
	"bufferViews":[
		{
			"buffer":0,
			"byteLength":288,
			"byteOffset":0,
			"target":34962
		},
		{
			"buffer":0,
			"byteLength":192,
			"byteOffset":288,
			"target":34962
		},
		{
			"buffer":0,
			"byteLength":288,
			"byteOffset":480,
			"target":34962
		},
		{
			"buffer":0,
			"byteLength":72,
			"byteOffset":768,
			"target":34963
		},
		{
			"buffer":0,
			"byteLength":768,
			"byteOffset":840,
			"target":34962
		},
		{
			"buffer":0,
			"byteLength":512,
			"byteOffset":1608,
			"target":34962
		},
		{
			"buffer":0,
			"byteLength":768,
			"byteOffset":2120,
			"target":34962
		},
		{
			"buffer":0,
			"byteLength":264,
			"byteOffset":2888,
			"target":34963
		},
		{
			"buffer":0,
			"byteLength":1824,
			"byteOffset":3152,
			"target":34962
		},
		{
			"buffer":0,
			"byteLength":1216,
			"byteOffset":4976,
			"target":34962
		},
		{
			"buffer":0,
			"byteLength":1824,
			"byteOffset":6192,
			"target":34962
		},
		{
			"buffer":0,
			"byteLength":636,
			"byteOffset":8016,
			"target":34963
		},
		{
			"buffer":0,
			"byteLength":432,
			"byteOffset":8652,
			"target":34962
		},
		{
			"buffer":0,
			"byteLength":288,
			"byteOffset":9084,
			"target":34962
		},
		{
			"buffer":0,
			"byteLength":432,
			"byteOffset":9372,
			"target":34962
		},
		{
			"buffer":0,
			"byteLength":108,
			"byteOffset":9804,
			"target":34963
		},
		{
			"buffer":0,
			"byteLength":144,
			"byteOffset":9912,
			"target":34962
		},
		{
			"buffer":0,
			"byteLength":96,
			"byteOffset":10056,
			"target":34962
		},
		{
			"buffer":0,
			"byteLength":144,
			"byteOffset":10152,
			"target":34962
		},
		{
			"buffer":0,
			"byteLength":36,
			"byteOffset":10296,
			"target":34963
		}
	],
	"buffers":[
		{
			"byteLength":10332,
			"uri":"data:application/octet-stream;base64,"
		}
	]
}
