{
	"asset":{
		"generator":"Khronos glTF Blender I/O v3.5.30",
		"version":"2.0"
	},
	"scene":0,
	"scenes":[
		{
			"name":"Scene",
			"nodes":[
				0
			]
		}
	],
	"nodes":[
		{
			"mesh":0,
			"name":"pie",
			"translation":[
				0,
				0.06632495671510696,
				0
			]
		}
	],
	"materials":[
		{
			"name":"brownDark",
			"pbrMetallicRoughness":{
				"baseColorFactor":[
					0.5911142230033875,
					0.21276116371154785,
					0.11284331232309341,
					1
				],
				"metallicFactor":0
			}
		},
		{
			"name":"greyLight",
			"pbrMetallicRoughness":{
				"baseColorFactor":[
					0.6795425415039062,
					0.7912980318069458,
					0.8962693810462952,
					1
				],
				"metallicFactor":0
			}
		},
		{
			"name":"brown",
			"pbrMetallicRoughness":{
				"baseColorFactor":[
					1,
					0.4295433461666107,
					0.20970113575458527,
					1
				],
				"metallicFactor":0
			}
		},
		{
			"name":"brownLight",
			"pbrMetallicRoughness":{
				"baseColorFactor":[
					0.9786729216575623,
					0.6431110501289368,
					0.36741122603416443,
					1
				],
				"metallicFactor":0
			}
		}
	],
	"meshes":[
		{
			"name":"Mesh pie",
			"primitives":[
				{
					"attributes":{
						"POSITION":0,
						"TEXCOORD_0":1,
						"NORMAL":2
					},
					"indices":3,
					"material":0
				},
				{
					"attributes":{
						"POSITION":4,
						"TEXCOORD_0":5,
						"NORMAL":6
					},
					"indices":7,
					"material":1
				},
				{
					"attributes":{
						"POSITION":8,
						"TEXCOORD_0":9,
						"NORMAL":10
					},
					"indices":11,
					"material":2
				},
				{
					"attributes":{
						"POSITION":12,
						"TEXCOORD_0":13,
						"NORMAL":14
					},
					"indices":15,
					"material":3
				}
			]
		}
	],
	"accessors":[
		{
			"bufferView":0,
			"componentType":5126,
			"count":52,
			"max":[
				0.23759999871253967,
				0.05009903758764267,
				0.23760001361370087
			],
			"min":[
				-0.23759999871253967,
				0.05009903758764267,
				-0.23759998381137848
			],
			"type":"VEC3"
		},
		{
			"bufferView":1,
			"componentType":5126,
			"count":52,
			"type":"VEC2"
		},
		{
			"bufferView":2,
			"componentType":5126,
			"count":52,
			"type":"VEC3"
		},
		{
			"bufferView":3,
			"componentType":5123,
			"count":78,
			"type":"SCALAR"
		},
		{
			"bufferView":4,
			"componentType":5126,
			"count":132,
			"max":[
				0.47519999742507935,
				0.05009903758764267,
				0.47520002722740173
			],
			"min":[
				-0.47519999742507935,
				-0.06632495671510696,
				-0.47519996762275696
			],
			"type":"VEC3"
		},
		{
			"bufferView":5,
			"componentType":5126,
			"count":132,
			"type":"VEC2"
		},
		{
			"bufferView":6,
			"componentType":5126,
			"count":132,
			"type":"VEC3"
		},
		{
			"bufferView":7,
			"componentType":5123,
			"count":246,
			"type":"SCALAR"
		},
		{
			"bufferView":8,
			"componentType":5126,
			"count":144,
			"max":[
				0.4323570430278778,
				0.08336304873228073,
				0.4323570728302002
			],
			"min":[
				-0.4323570430278778,
				0.05009903758764267,
				-0.4323570132255554
			],
			"type":"VEC3"
		},
		{
			"bufferView":9,
			"componentType":5126,
			"count":144,
			"type":"VEC2"
		},
		{
			"bufferView":10,
			"componentType":5126,
			"count":144,
			"type":"VEC3"
		},
		{
			"bufferView":11,
			"componentType":5123,
			"count":288,
			"type":"SCALAR"
		},
		{
			"bufferView":12,
			"componentType":5126,
			"count":84,
			"max":[
				0.2856137156486511,
				0.05009903758764267,
				0.2856137454509735
			],
			"min":[
				-0.2856137156486511,
				0.05009903758764267,
				-0.28561368584632874
			],
			"type":"VEC3"
		},
		{
			"bufferView":13,
			"componentType":5126,
			"count":84,
			"type":"VEC2"
		},
		{
			"bufferView":14,
			"componentType":5126,
			"count":84,
			"type":"VEC3"
		},
		{
			"bufferView":15,
			"componentType":5123,
			"count":264,
			"type":"SCALAR"
		}
	],
	"bufferViews":[
		{
			"buffer":0,
			"byteLength":624,
			"byteOffset":0,
			"target":34962
		},
		{
			"buffer":0,
			"byteLength":416,
			"byteOffset":624,
			"target":34962
		},
		{
			"buffer":0,
			"byteLength":624,
			"byteOffset":1040,
			"target":34962
		},
		{
			"buffer":0,
			"byteLength":156,
			"byteOffset":1664,
			"target":34963
		},
		{
			"buffer":0,
			"byteLength":1584,
			"byteOffset":1820,
			"target":34962
		},
		{
			"buffer":0,
			"byteLength":1056,
			"byteOffset":3404,
			"target":34962
		},
		{
			"buffer":0,
			"byteLength":1584,
			"byteOffset":4460,
			"target":34962
		},
		{
			"buffer":0,
			"byteLength":492,
			"byteOffset":6044,
			"target":34963
		},
		{
			"buffer":0,
			"byteLength":1728,
			"byteOffset":6536,
			"target":34962
		},
		{
			"buffer":0,
			"byteLength":1152,
			"byteOffset":8264,
			"target":34962
		},
		{
			"buffer":0,
			"byteLength":1728,
			"byteOffset":9416,
			"target":34962
		},
		{
			"buffer":0,
			"byteLength":576,
			"byteOffset":11144,
			"target":34963
		},
		{
			"buffer":0,
			"byteLength":1008,
			"byteOffset":11720,
			"target":34962
		},
		{
			"buffer":0,
			"byteLength":672,
			"byteOffset":12728,
			"target":34962
		},
		{
			"buffer":0,
			"byteLength":1008,
			"byteOffset":13400,
			"target":34962
		},
		{
			"buffer":0,
			"byteLength":528,
			"byteOffset":14408,
			"target":34963
		}
	],
	"buffers":[
		{
			"byteLength":14936,
			"uri":"data:application/octet-stream;base64,"
		}
	]
}
