{
	"asset":{
		"generator":"Khronos glTF Blender I/O v3.5.30",
		"version":"2.0"
	},
	"scene":0,
	"scenes":[
		{
			"name":"Scene",
			"nodes":[
				0
			]
		}
	],
	"nodes":[
		{
			"mesh":0,
			"name":"apple"
		}
	],
	"materials":[
		{
			"name":"red",
			"pbrMetallicRoughness":{
				"baseColorFactor":[
					0.8069523572921753,
					0.09084171056747437,
					0.08650045096874237,
					1
				],
				"metallicFactor":0
			}
		},
		{
			"name":"brown",
			"pbrMetallicRoughness":{
				"baseColorFactor":[
					1,
					0.4295433461666107,
					0.20970113575458527,
					1
				],
				"metallicFactor":0
			}
		},
		{
			"name":"green",
			"pbrMetallicRoughness":{
				"baseColorFactor":[
					0.145167276263237,
					0.7077566385269165,
					0.443433552980423,
					1
				],
				"metallicFactor":0
			}
		}
	],
	"meshes":[
		{
			"name":"Mesh apple",
			"primitives":[
				{
					"attributes":{
						"POSITION":0,
						"TEXCOORD_0":1,
						"NORMAL":2
					},
					"indices":3,
					"material":0
				},
				{
					"attributes":{
						"POSITION":4,
						"TEXCOORD_0":5,
						"NORMAL":6
					},
					"indices":7,
					"material":1
				},
				{
					"attributes":{
						"POSITION":8,
						"TEXCOORD_0":9,
						"NORMAL":10
					},
					"indices":11,
					"material":2
				}
			]
		}
	],
	"accessors":[
		{
			"bufferView":0,
			"componentType":5126,
			"count":196,
			"max":[
				0.09814728051424026,
				0.07237157970666885,
				0.09814728051424026
			],
			"min":[
				-0.09814728051424026,
				-0.08464441448450089,
				-0.09814728051424026
			],
			"type":"VEC3"
		},
		{
			"bufferView":1,
			"componentType":5126,
			"count":196,
			"type":"VEC2"
		},
		{
			"bufferView":2,
			"componentType":5126,
			"count":196,
			"type":"VEC3"
		},
		{
			"bufferView":3,
			"componentType":5123,
			"count":342,
			"type":"SCALAR"
		},
		{
			"bufferView":4,
			"componentType":5126,
			"count":20,
			"max":[
				0.009609597735106945,
				0.10610900074243546,
				0.009609594941139221
			],
			"min":[
				-0.009609601460397243,
				0.062371596693992615,
				-0.009609601460397243
			],
			"type":"VEC3"
		},
		{
			"bufferView":5,
			"componentType":5126,
			"count":20,
			"type":"VEC2"
		},
		{
			"bufferView":6,
			"componentType":5126,
			"count":20,
			"type":"VEC3"
		},
		{
			"bufferView":7,
			"componentType":5123,
			"count":30,
			"type":"SCALAR"
		},
		{
			"bufferView":8,
			"componentType":5126,
			"count":36,
			"max":[
				0.03240000084042549,
				0.09211336821317673,
				0.09483376145362854
			],
			"min":[
				-0.03240000084042549,
				0.07720539718866348,
				0.007495483383536339
			],
			"type":"VEC3"
		},
		{
			"bufferView":9,
			"componentType":5126,
			"count":36,
			"type":"VEC2"
		},
		{
			"bufferView":10,
			"componentType":5126,
			"count":36,
			"type":"VEC3"
		},
		{
			"bufferView":11,
			"componentType":5123,
			"count":36,
			"type":"SCALAR"
		}
	],
	"bufferViews":[
		{
			"buffer":0,
			"byteLength":2352,
			"byteOffset":0,
			"target":34962
		},
		{
			"buffer":0,
			"byteLength":1568,
			"byteOffset":2352,
			"target":34962
		},
		{
			"buffer":0,
			"byteLength":2352,
			"byteOffset":3920,
			"target":34962
		},
		{
			"buffer":0,
			"byteLength":684,
			"byteOffset":6272,
			"target":34963
		},
		{
			"buffer":0,
			"byteLength":240,
			"byteOffset":6956,
			"target":34962
		},
		{
			"buffer":0,
			"byteLength":160,
			"byteOffset":7196,
			"target":34962
		},
		{
			"buffer":0,
			"byteLength":240,
			"byteOffset":7356,
			"target":34962
		},
		{
			"buffer":0,
			"byteLength":60,
			"byteOffset":7596,
			"target":34963
		},
		{
			"buffer":0,
			"byteLength":432,
			"byteOffset":7656,
			"target":34962
		},
		{
			"buffer":0,
			"byteLength":288,
			"byteOffset":8088,
			"target":34962
		},
		{
			"buffer":0,
			"byteLength":432,
			"byteOffset":8376,
			"target":34962
		},
		{
			"buffer":0,
			"byteLength":72,
			"byteOffset":8808,
			"target":34963
		}
	],
	"buffers":[
		{
			"byteLength":8880,
			"uri":"data:application/octet-stream;base64,"
		}
	]
}
