{
	"asset":{
		"generator":"Khronos glTF Blender I/O v3.5.30",
		"version":"2.0"
	},
	"scene":0,
	"scenes":[
		{
			"name":"Scene",
			"nodes":[
				6
			]
		}
	],
	"nodes":[
		{
			"mesh":0,
			"name":"bunBottom"
		},
		{
			"mesh":1,
			"name":"bunTop",
			"translation":[
				0,
				0.17000000178813934,
				0
			]
		},
		{
			"mesh":2,
			"name":"cheese",
			"scale":[
				2.793447494506836,
				1,
				1.4249999523162842
			],
			"translation":[
				0,
				0.08560000360012054,
				0
			]
		},
		{
			"mesh":3,
			"name":"patty",
			"scale":[
				1,
				1.1399999856948853,
				1
			],
			"translation":[
				0,
				0.07000000029802322,
				0
			]
		},
		{
			"mesh":4,
			"name":"salad",
			"scale":[
				0.91839998960495,
				0.75,
				0.91839998960495
			],
			"translation":[
				0,
				0.03999999910593033,
				0
			]
		},
		{
			"mesh":5,
			"name":"tomato",
			"scale":[
				1.559999942779541,
				0.7039999961853027,
				1.559999942779541
			],
			"translation":[
				0,
				0.1356000006198883,
				0
			]
		},
		{
			"children":[
				0,
				1,
				2,
				3,
				4,
				5
			],
			"name":"burger"
		}
	],
	"materials":[
		{
			"name":"brownLight",
			"pbrMetallicRoughness":{
				"baseColorFactor":[
					0.9786729216575623,
					0.6431110501289368,
					0.36741122603416443,
					1
				],
				"metallicFactor":0
			}
		},
		{
			"name":"yellow",
			"pbrMetallicRoughness":{
				"baseColorFactor":[
					1,
					0.6008447408676147,
					0.10852616280317307,
					1
				],
				"metallicFactor":0
			}
		},
		{
			"name":"brownDark",
			"pbrMetallicRoughness":{
				"baseColorFactor":[
					0.5911142230033875,
					0.21276116371154785,
					0.11284331232309341,
					1
				],
				"metallicFactor":0
			}
		},
		{
			"name":"green",
			"pbrMetallicRoughness":{
				"baseColorFactor":[
					0.145167276263237,
					0.7077566385269165,
					0.443433552980423,
					1
				],
				"metallicFactor":0
			}
		},
		{
			"name":"_defaultMat",
			"pbrMetallicRoughness":{
				"metallicFactor":0
			}
		},
		{
			"name":"red",
			"pbrMetallicRoughness":{
				"baseColorFactor":[
					0.8069523572921753,
					0.09084171056747437,
					0.08650045096874237,
					1
				],
				"metallicFactor":0
			}
		}
	],
	"meshes":[
		{
			"name":"Mesh bunBottom",
			"primitives":[
				{
					"attributes":{
						"POSITION":0,
						"TEXCOORD_0":1,
						"NORMAL":2
					},
					"indices":3,
					"material":0
				}
			]
		},
		{
			"name":"Mesh bunTop",
			"primitives":[
				{
					"attributes":{
						"POSITION":4,
						"TEXCOORD_0":5,
						"NORMAL":6
					},
					"indices":7,
					"material":0
				}
			]
		},
		{
			"name":"Mesh cheese",
			"primitives":[
				{
					"attributes":{
						"POSITION":8,
						"TEXCOORD_0":9,
						"NORMAL":10
					},
					"indices":11,
					"material":1
				}
			]
		},
		{
			"name":"Mesh patty",
			"primitives":[
				{
					"attributes":{
						"POSITION":12,
						"TEXCOORD_0":13,
						"NORMAL":14
					},
					"indices":15,
					"material":2
				}
			]
		},
		{
			"name":"Mesh salad",
			"primitives":[
				{
					"attributes":{
						"POSITION":16,
						"TEXCOORD_0":17,
						"NORMAL":18
					},
					"indices":19,
					"material":3
				}
			]
		},
		{
			"name":"Mesh tomato",
			"primitives":[
				{
					"attributes":{
						"POSITION":20,
						"TEXCOORD_0":21,
						"NORMAL":22
					},
					"indices":23,
					"material":4
				},
				{
					"attributes":{
						"POSITION":24,
						"TEXCOORD_0":25,
						"NORMAL":26
					},
					"indices":27,
					"material":5
				}
			]
		}
	],
	"accessors":[
		{
			"bufferView":0,
			"componentType":5126,
			"count":96,
			"max":[
				0.17999999225139618,
				0.03999999910593033,
				0.17999999225139618
			],
			"min":[
				-0.17999999225139618,
				0,
				-0.17999999225139618
			],
			"type":"VEC3"
		},
		{
			"bufferView":1,
			"componentType":5126,
			"count":96,
			"type":"VEC2"
		},
		{
			"bufferView":2,
			"componentType":5126,
			"count":96,
			"type":"VEC3"
		},
		{
			"bufferView":3,
			"componentType":5123,
			"count":168,
			"type":"SCALAR"
		},
		{
			"bufferView":4,
			"componentType":5126,
			"count":112,
			"max":[
				0.18719999492168427,
				0.12000000476837158,
				0.18719999492168427
			],
			"min":[
				-0.18719999492168427,
				0,
				-0.18719999492168427
			],
			"type":"VEC3"
		},
		{
			"bufferView":5,
			"componentType":5126,
			"count":112,
			"type":"VEC2"
		},
		{
			"bufferView":6,
			"componentType":5126,
			"count":112,
			"type":"VEC3"
		},
		{
			"bufferView":7,
			"componentType":5123,
			"count":180,
			"type":"SCALAR"
		},
		{
			"bufferView":8,
			"componentType":5126,
			"count":20,
			"max":[
				0.05499999597668648,
				0.03999999910593033,
				0.12000000476837158
			],
			"min":[
				-0.05499999597668648,
				0,
				-0.12000000476837158
			],
			"type":"VEC3"
		},
		{
			"bufferView":9,
			"componentType":5126,
			"count":20,
			"type":"VEC2"
		},
		{
			"bufferView":10,
			"componentType":5126,
			"count":20,
			"type":"VEC3"
		},
		{
			"bufferView":11,
			"componentType":5123,
			"count":30,
			"type":"SCALAR"
		},
		{
			"bufferView":12,
			"componentType":5126,
			"count":176,
			"max":[
				0.1889999955892563,
				0.03999999910593033,
				0.1889999955892563
			],
			"min":[
				-0.1889999955892563,
				0,
				-0.1889999955892563
			],
			"type":"VEC3"
		},
		{
			"bufferView":13,
			"componentType":5126,
			"count":176,
			"type":"VEC2"
		},
		{
			"bufferView":14,
			"componentType":5126,
			"count":176,
			"type":"VEC3"
		},
		{
			"bufferView":15,
			"componentType":5123,
			"count":300,
			"type":"SCALAR"
		},
		{
			"bufferView":16,
			"componentType":5126,
			"count":24,
			"max":[
				0.2199999839067459,
				0.03999999910593033,
				0.2199999839067459
			],
			"min":[
				-0.2199999839067459,
				0,
				-0.2199999839067459
			],
			"type":"VEC3"
		},
		{
			"bufferView":17,
			"componentType":5126,
			"count":24,
			"type":"VEC2"
		},
		{
			"bufferView":18,
			"componentType":5126,
			"count":24,
			"type":"VEC3"
		},
		{
			"bufferView":19,
			"componentType":5123,
			"count":24,
			"type":"SCALAR"
		},
		{
			"bufferView":20,
			"componentType":5126,
			"count":8,
			"max":[
				0.12000000476837158,
				0,
				0.12000000476837158
			],
			"min":[
				-0.12000000476837158,
				0,
				-0.12000000476837158
			],
			"type":"VEC3"
		},
		{
			"bufferView":21,
			"componentType":5126,
			"count":8,
			"type":"VEC2"
		},
		{
			"bufferView":22,
			"componentType":5126,
			"count":8,
			"type":"VEC3"
		},
		{
			"bufferView":23,
			"componentType":5123,
			"count":18,
			"type":"SCALAR"
		},
		{
			"bufferView":24,
			"componentType":5126,
			"count":88,
			"max":[
				0.12000000476837158,
				0.030000001192092896,
				0.12000000476837158
			],
			"min":[
				-0.12000000476837158,
				0,
				-0.12000000476837158
			],
			"type":"VEC3"
		},
		{
			"bufferView":25,
			"componentType":5126,
			"count":88,
			"type":"VEC2"
		},
		{
			"bufferView":26,
			"componentType":5126,
			"count":88,
			"type":"VEC3"
		},
		{
			"bufferView":27,
			"componentType":5123,
			"count":162,
			"type":"SCALAR"
		}
	],
	"bufferViews":[
		{
			"buffer":0,
			"byteLength":1152,
			"byteOffset":0,
			"target":34962
		},
		{
			"buffer":0,
			"byteLength":768,
			"byteOffset":1152,
			"target":34962
		},
		{
			"buffer":0,
			"byteLength":1152,
			"byteOffset":1920,
			"target":34962
		},
		{
			"buffer":0,
			"byteLength":336,
			"byteOffset":3072,
			"target":34963
		},
		{
			"buffer":0,
			"byteLength":1344,
			"byteOffset":3408,
			"target":34962
		},
		{
			"buffer":0,
			"byteLength":896,
			"byteOffset":4752,
			"target":34962
		},
		{
			"buffer":0,
			"byteLength":1344,
			"byteOffset":5648,
			"target":34962
		},
		{
			"buffer":0,
			"byteLength":360,
			"byteOffset":6992,
			"target":34963
		},
		{
			"buffer":0,
			"byteLength":240,
			"byteOffset":7352,
			"target":34962
		},
		{
			"buffer":0,
			"byteLength":160,
			"byteOffset":7592,
			"target":34962
		},
		{
			"buffer":0,
			"byteLength":240,
			"byteOffset":7752,
			"target":34962
		},
		{
			"buffer":0,
			"byteLength":60,
			"byteOffset":7992,
			"target":34963
		},
		{
			"buffer":0,
			"byteLength":2112,
			"byteOffset":8052,
			"target":34962
		},
		{
			"buffer":0,
			"byteLength":1408,
			"byteOffset":10164,
			"target":34962
		},
		{
			"buffer":0,
			"byteLength":2112,
			"byteOffset":11572,
			"target":34962
		},
		{
			"buffer":0,
			"byteLength":600,
			"byteOffset":13684,
			"target":34963
		},
		{
			"buffer":0,
			"byteLength":288,
			"byteOffset":14284,
			"target":34962
		},
		{
			"buffer":0,
			"byteLength":192,
			"byteOffset":14572,
			"target":34962
		},
		{
			"buffer":0,
			"byteLength":288,
			"byteOffset":14764,
			"target":34962
		},
		{
			"buffer":0,
			"byteLength":48,
			"byteOffset":15052,
			"target":34963
		},
		{
			"buffer":0,
			"byteLength":96,
			"byteOffset":15100,
			"target":34962
		},
		{
			"buffer":0,
			"byteLength":64,
			"byteOffset":15196,
			"target":34962
		},
		{
			"buffer":0,
			"byteLength":96,
			"byteOffset":15260,
			"target":34962
		},
		{
			"buffer":0,
			"byteLength":36,
			"byteOffset":15356,
			"target":34963
		},
		{
			"buffer":0,
			"byteLength":1056,
			"byteOffset":15392,
			"target":34962
		},
		{
			"buffer":0,
			"byteLength":704,
			"byteOffset":16448,
			"target":34962
		},
		{
			"buffer":0,
			"byteLength":1056,
			"byteOffset":17152,
			"target":34962
		},
		{
			"buffer":0,
			"byteLength":324,
			"byteOffset":18208,
			"target":34963
		}
	],
	"buffers":[
		{
			"byteLength":18532,
			"uri":"data:application/octet-stream;base64,"
		}
	]
}
