{
	"asset":{
		"generator":"Khronos glTF Blender I/O v3.5.30",
		"version":"2.0"
	},
	"scene":0,
	"scenes":[
		{
			"name":"Scene",
			"nodes":[
				0
			]
		}
	],
	"nodes":[
		{
			"mesh":0,
			"name":"pepper"
		}
	],
	"materials":[
		{
			"name":"red",
			"pbrMetallicRoughness":{
				"baseColorFactor":[
					0.8069523572921753,
					0.09084171056747437,
					0.08650045096874237,
					1
				],
				"metallicFactor":0
			}
		},
		{
			"name":"green",
			"pbrMetallicRoughness":{
				"baseColorFactor":[
					0.145167276263237,
					0.7077566385269165,
					0.443433552980423,
					1
				],
				"metallicFactor":0
			}
		}
	],
	"meshes":[
		{
			"name":"Mesh pepper",
			"primitives":[
				{
					"attributes":{
						"POSITION":0,
						"TEXCOORD_0":1,
						"NORMAL":2
					},
					"indices":3,
					"material":0
				},
				{
					"attributes":{
						"POSITION":4,
						"TEXCOORD_0":5,
						"NORMAL":6
					},
					"indices":7,
					"material":1
				}
			]
		}
	],
	"accessors":[
		{
			"bufferView":0,
			"componentType":5126,
			"count":172,
			"max":[
				0.05195043608546257,
				0.07747463136911392,
				0.15953704714775085
			],
			"min":[
				-0.05195043608546257,
				0,
				-0.08953705430030823
			],
			"type":"VEC3"
		},
		{
			"bufferView":1,
			"componentType":5126,
			"count":172,
			"type":"VEC2"
		},
		{
			"bufferView":2,
			"componentType":5126,
			"count":172,
			"type":"VEC3"
		},
		{
			"bufferView":3,
			"componentType":5123,
			"count":222,
			"type":"SCALAR"
		},
		{
			"bufferView":4,
			"componentType":5126,
			"count":52,
			"max":[
				0.02711019106209278,
				0.058627065271139145,
				-0.08953705430030823
			],
			"min":[
				-0.012669309042394161,
				0.018847566097974777,
				-0.15953704714775085
			],
			"type":"VEC3"
		},
		{
			"bufferView":5,
			"componentType":5126,
			"count":52,
			"type":"VEC2"
		},
		{
			"bufferView":6,
			"componentType":5126,
			"count":52,
			"type":"VEC3"
		},
		{
			"bufferView":7,
			"componentType":5123,
			"count":78,
			"type":"SCALAR"
		}
	],
	"bufferViews":[
		{
			"buffer":0,
			"byteLength":2064,
			"byteOffset":0,
			"target":34962
		},
		{
			"buffer":0,
			"byteLength":1376,
			"byteOffset":2064,
			"target":34962
		},
		{
			"buffer":0,
			"byteLength":2064,
			"byteOffset":3440,
			"target":34962
		},
		{
			"buffer":0,
			"byteLength":444,
			"byteOffset":5504,
			"target":34963
		},
		{
			"buffer":0,
			"byteLength":624,
			"byteOffset":5948,
			"target":34962
		},
		{
			"buffer":0,
			"byteLength":416,
			"byteOffset":6572,
			"target":34962
		},
		{
			"buffer":0,
			"byteLength":624,
			"byteOffset":6988,
			"target":34962
		},
		{
			"buffer":0,
			"byteLength":156,
			"byteOffset":7612,
			"target":34963
		}
	],
	"buffers":[
		{
			"byteLength":7768,
			"uri":"data:application/octet-stream;base64,"
		}
	]
}
