{
	"asset":{
		"generator":"Khronos glTF Blender I/O v3.5.30",
		"version":"2.0"
	},
	"scene":0,
	"scenes":[
		{
			"name":"Scene",
			"nodes":[
				2
			]
		}
	],
	"nodes":[
		{
			"mesh":0,
			"name":"lemon",
			"rotation":[
				0,
				0,
				0.7071068286895752,
				0.7071068286895752
			],
			"translation":[
				0.003630206221714616,
				0.40835240483283997,
				0.13097883760929108
			]
		},
		{
			"mesh":1,
			"name":"straw",
			"rotation":[
				-0.13052600622177124,
				0,
				0,
				0.9914448857307434
			],
			"scale":[
				0.6483749747276306,
				0.875306248664856,
				0.6483750343322754
			],
			"translation":[
				-0.012801647186279297,
				0.34525665640830994,
				-0.041439883410930634
			]
		},
		{
			"children":[
				0,
				1
			],
			"mesh":2,
			"name":"cocktail"
		}
	],
	"materials":[
		{
			"name":"brownLight",
			"pbrMetallicRoughness":{
				"baseColorFactor":[
					0.9786729216575623,
					0.6431110501289368,
					0.36741122603416443,
					1
				],
				"metallicFactor":0
			}
		},
		{
			"name":"yellow",
			"pbrMetallicRoughness":{
				"baseColorFactor":[
					1,
					0.6008447408676147,
					0.10852616280317307,
					1
				],
				"metallicFactor":0
			}
		},
		{
			"name":"green",
			"pbrMetallicRoughness":{
				"baseColorFactor":[
					0.145167276263237,
					0.7077566385269165,
					0.443433552980423,
					1
				],
				"metallicFactor":0
			}
		},
		{
			"name":"_defaultMat",
			"pbrMetallicRoughness":{
				"metallicFactor":0
			}
		},
		{
			"name":"greyLight",
			"pbrMetallicRoughness":{
				"baseColorFactor":[
					0.6795425415039062,
					0.7912980318069458,
					0.8962693810462952,
					1
				],
				"metallicFactor":0
			}
		},
		{
			"name":"red",
			"pbrMetallicRoughness":{
				"baseColorFactor":[
					0.8069523572921753,
					0.09084171056747437,
					0.08650045096874237,
					1
				],
				"metallicFactor":0
			}
		}
	],
	"meshes":[
		{
			"name":"Mesh lemon",
			"primitives":[
				{
					"attributes":{
						"POSITION":0,
						"TEXCOORD_0":1,
						"NORMAL":2
					},
					"indices":3,
					"material":0
				},
				{
					"attributes":{
						"POSITION":4,
						"TEXCOORD_0":5,
						"NORMAL":6
					},
					"indices":7,
					"material":1
				}
			]
		},
		{
			"name":"Mesh straw",
			"primitives":[
				{
					"attributes":{
						"POSITION":8,
						"TEXCOORD_0":9,
						"NORMAL":10
					},
					"indices":11,
					"material":2
				}
			]
		},
		{
			"name":"Mesh cocktail",
			"primitives":[
				{
					"attributes":{
						"POSITION":12,
						"TEXCOORD_0":13,
						"NORMAL":14
					},
					"indices":15,
					"material":3
				},
				{
					"attributes":{
						"POSITION":16,
						"TEXCOORD_0":17,
						"NORMAL":18
					},
					"indices":11,
					"material":4
				},
				{
					"attributes":{
						"POSITION":19,
						"TEXCOORD_0":20,
						"NORMAL":21
					},
					"indices":22,
					"material":5
				}
			]
		}
	],
	"accessors":[
		{
			"bufferView":0,
			"componentType":5126,
			"count":12,
			"max":[
				0.04864702373743057,
				0.015000000596046448,
				0.056172747164964676
			],
			"min":[
				-0.04864702373743057,
				-0.015000000596046448,
				-0.056172747164964676
			],
			"type":"VEC3"
		},
		{
			"bufferView":1,
			"componentType":5126,
			"count":12,
			"type":"VEC2"
		},
		{
			"bufferView":2,
			"componentType":5126,
			"count":12,
			"type":"VEC3"
		},
		{
			"bufferView":3,
			"componentType":5123,
			"count":24,
			"type":"SCALAR"
		},
		{
			"bufferView":4,
			"componentType":5126,
			"count":48,
			"max":[
				0.06928202509880066,
				0.015000000596046448,
				0.07999999821186066
			],
			"min":[
				-0.06928202509880066,
				-0.015000000596046448,
				-0.07999999821186066
			],
			"type":"VEC3"
		},
		{
			"bufferView":5,
			"componentType":5126,
			"count":48,
			"type":"VEC2"
		},
		{
			"bufferView":6,
			"componentType":5126,
			"count":48,
			"type":"VEC3"
		},
		{
			"bufferView":7,
			"componentType":5123,
			"count":108,
			"type":"SCALAR"
		},
		{
			"bufferView":8,
			"componentType":5126,
			"count":24,
			"max":[
				0.030000001192092896,
				0.1899999976158142,
				-2.8876456432312897e-15
			],
			"min":[
				0,
				7.219114108078224e-16,
				-0.030000001192092896
			],
			"type":"VEC3"
		},
		{
			"bufferView":9,
			"componentType":5126,
			"count":24,
			"type":"VEC2"
		},
		{
			"bufferView":10,
			"componentType":5126,
			"count":24,
			"type":"VEC3"
		},
		{
			"bufferView":11,
			"componentType":5123,
			"count":36,
			"type":"SCALAR"
		},
		{
			"bufferView":12,
			"componentType":5126,
			"count":108,
			"max":[
				0.1303407847881317,
				0.40724098682403564,
				0.15050457417964935
			],
			"min":[
				-0.1303407847881317,
				0,
				-0.15050457417964935
			],
			"type":"VEC3"
		},
		{
			"bufferView":13,
			"componentType":5126,
			"count":108,
			"type":"VEC2"
		},
		{
			"bufferView":14,
			"componentType":5126,
			"count":108,
			"type":"VEC3"
		},
		{
			"bufferView":15,
			"componentType":5123,
			"count":216,
			"type":"SCALAR"
		},
		{
			"bufferView":16,
			"componentType":5126,
			"count":24,
			"max":[
				0.10876990854740143,
				0.40724098682403564,
				0.12559668719768524
			],
			"min":[
				-0.10876990854740143,
				0.3626323640346527,
				-0.12559668719768524
			],
			"type":"VEC3"
		},
		{
			"bufferView":17,
			"componentType":5126,
			"count":24,
			"type":"VEC2"
		},
		{
			"bufferView":18,
			"componentType":5126,
			"count":24,
			"type":"VEC3"
		},
		{
			"bufferView":19,
			"componentType":5126,
			"count":6,
			"max":[
				0.07127663493156433,
				0.3626323640346527,
				0.08230316638946533
			],
			"min":[
				-0.07127663493156433,
				0.3626323640346527,
				-0.08230316638946533
			],
			"type":"VEC3"
		},
		{
			"bufferView":20,
			"componentType":5126,
			"count":6,
			"type":"VEC2"
		},
		{
			"bufferView":21,
			"componentType":5126,
			"count":6,
			"type":"VEC3"
		},
		{
			"bufferView":22,
			"componentType":5123,
			"count":12,
			"type":"SCALAR"
		}
	],
	"bufferViews":[
		{
			"buffer":0,
			"byteLength":144,
			"byteOffset":0,
			"target":34962
		},
		{
			"buffer":0,
			"byteLength":96,
			"byteOffset":144,
			"target":34962
		},
		{
			"buffer":0,
			"byteLength":144,
			"byteOffset":240,
			"target":34962
		},
		{
			"buffer":0,
			"byteLength":48,
			"byteOffset":384,
			"target":34963
		},
		{
			"buffer":0,
			"byteLength":576,
			"byteOffset":432,
			"target":34962
		},
		{
			"buffer":0,
			"byteLength":384,
			"byteOffset":1008,
			"target":34962
		},
		{
			"buffer":0,
			"byteLength":576,
			"byteOffset":1392,
			"target":34962
		},
		{
			"buffer":0,
			"byteLength":216,
			"byteOffset":1968,
			"target":34963
		},
		{
			"buffer":0,
			"byteLength":288,
			"byteOffset":2184,
			"target":34962
		},
		{
			"buffer":0,
			"byteLength":192,
			"byteOffset":2472,
			"target":34962
		},
		{
			"buffer":0,
			"byteLength":288,
			"byteOffset":2664,
			"target":34962
		},
		{
			"buffer":0,
			"byteLength":72,
			"byteOffset":2952,
			"target":34963
		},
		{
			"buffer":0,
			"byteLength":1296,
			"byteOffset":3024,
			"target":34962
		},
		{
			"buffer":0,
			"byteLength":864,
			"byteOffset":4320,
			"target":34962
		},
		{
			"buffer":0,
			"byteLength":1296,
			"byteOffset":5184,
			"target":34962
		},
		{
			"buffer":0,
			"byteLength":432,
			"byteOffset":6480,
			"target":34963
		},
		{
			"buffer":0,
			"byteLength":288,
			"byteOffset":6912,
			"target":34962
		},
		{
			"buffer":0,
			"byteLength":192,
			"byteOffset":7200,
			"target":34962
		},
		{
			"buffer":0,
			"byteLength":288,
			"byteOffset":7392,
			"target":34962
		},
		{
			"buffer":0,
			"byteLength":72,
			"byteOffset":7680,
			"target":34962
		},
		{
			"buffer":0,
			"byteLength":48,
			"byteOffset":7752,
			"target":34962
		},
		{
			"buffer":0,
			"byteLength":72,
			"byteOffset":7800,
			"target":34962
		},
		{
			"buffer":0,
			"byteLength":24,
			"byteOffset":7872,
			"target":34963
		}
	],
	"buffers":[
		{
			"byteLength":7896,
			"uri":"data:application/octet-stream;base64,"
		}
	]
}
