{
	"asset":{
		"generator":"Khronos glTF Blender I/O v3.5.30",
		"version":"2.0"
	},
	"scene":0,
	"scenes":[
		{
			"name":"Scene",
			"nodes":[
				1
			]
		}
	],
	"nodes":[
		{
			"mesh":0,
			"name":"fries.001",
			"scale":[
				1.1799999475479126,
				1.5221999883651733,
				1.1799999475479126
			],
			"translation":[
				0.00027562218019738793,
				0.08034133911132812,
				0.0019803643226623535
			]
		},
		{
			"children":[
				0
			],
			"mesh":1,
			"name":"fries",
			"translation":[
				0,
				0.17175570130348206,
				0
			]
		}
	],
	"materials":[
		{
			"name":"yellow",
			"pbrMetallicRoughness":{
				"baseColorFactor":[
					1,
					0.6008447408676147,
					0.10852616280317307,
					1
				],
				"metallicFactor":0
			}
		},
		{
			"name":"red",
			"pbrMetallicRoughness":{
				"baseColorFactor":[
					0.8069523572921753,
					0.09084171056747437,
					0.08650045096874237,
					1
				],
				"metallicFactor":0
			}
		}
	],
	"meshes":[
		{
			"name":"Mesh fries.001",
			"primitives":[
				{
					"attributes":{
						"POSITION":0,
						"TEXCOORD_0":1,
						"NORMAL":2
					},
					"indices":3,
					"material":0
				}
			]
		},
		{
			"name":"Mesh fries",
			"primitives":[
				{
					"attributes":{
						"POSITION":4,
						"TEXCOORD_0":5,
						"NORMAL":6
					},
					"indices":7,
					"material":1
				}
			]
		}
	],
	"accessors":[
		{
			"bufferView":0,
			"componentType":5126,
			"count":960,
			"max":[
				0.07651561498641968,
				0.09566739201545715,
				0.09506437182426453
			],
			"min":[
				-0.07854144275188446,
				-0.058256492018699646,
				-0.09696969389915466
			],
			"type":"VEC3"
		},
		{
			"bufferView":1,
			"componentType":5126,
			"count":960,
			"type":"VEC2"
		},
		{
			"bufferView":2,
			"componentType":5126,
			"count":960,
			"type":"VEC3"
		},
		{
			"bufferView":3,
			"componentType":5123,
			"count":1440,
			"type":"SCALAR"
		},
		{
			"bufferView":4,
			"componentType":5126,
			"count":144,
			"max":[
				0.08177399635314941,
				0.06424430012702942,
				0.13263022899627686
			],
			"min":[
				-0.08177399635314941,
				-0.17175570130348206,
				-0.13263022899627686
			],
			"type":"VEC3"
		},
		{
			"bufferView":5,
			"componentType":5126,
			"count":144,
			"type":"VEC2"
		},
		{
			"bufferView":6,
			"componentType":5126,
			"count":144,
			"type":"VEC3"
		},
		{
			"bufferView":7,
			"componentType":5123,
			"count":252,
			"type":"SCALAR"
		}
	],
	"bufferViews":[
		{
			"buffer":0,
			"byteLength":11520,
			"byteOffset":0,
			"target":34962
		},
		{
			"buffer":0,
			"byteLength":7680,
			"byteOffset":11520,
			"target":34962
		},
		{
			"buffer":0,
			"byteLength":11520,
			"byteOffset":19200,
			"target":34962
		},
		{
			"buffer":0,
			"byteLength":2880,
			"byteOffset":30720,
			"target":34963
		},
		{
			"buffer":0,
			"byteLength":1728,
			"byteOffset":33600,
			"target":34962
		},
		{
			"buffer":0,
			"byteLength":1152,
			"byteOffset":35328,
			"target":34962
		},
		{
			"buffer":0,
			"byteLength":1728,
			"byteOffset":36480,
			"target":34962
		},
		{
			"buffer":0,
			"byteLength":504,
			"byteOffset":38208,
			"target":34963
		}
	],
	"buffers":[
		{
			"byteLength":38712,
			"uri":"data:application/octet-stream;base64,"
		}
	]
}
