{
	"asset":{
		"generator":"Khronos glTF Blender I/O v3.5.30",
		"version":"2.0"
	},
	"scene":0,
	"scenes":[
		{
			"name":"Scene",
			"nodes":[
				0
			]
		}
	],
	"nodes":[
		{
			"mesh":0,
			"name":"plateDinner"
		}
	],
	"materials":[
		{
			"name":"brownDark",
			"pbrMetallicRoughness":{
				"baseColorFactor":[
					0.5911142230033875,
					0.21276116371154785,
					0.11284331232309341,
					1
				],
				"metallicFactor":0
			}
		},
		{
			"name":"_defaultMat",
			"pbrMetallicRoughness":{
				"metallicFactor":0
			}
		},
		{
			"name":"brown",
			"pbrMetallicRoughness":{
				"baseColorFactor":[
					1,
					0.4295433461666107,
					0.20970113575458527,
					1
				],
				"metallicFactor":0
			}
		},
		{
			"name":"green",
			"pbrMetallicRoughness":{
				"baseColorFactor":[
					0.145167276263237,
					0.7077566385269165,
					0.443433552980423,
					1
				],
				"metallicFactor":0
			}
		},
		{
			"name":"brownLight",
			"pbrMetallicRoughness":{
				"baseColorFactor":[
					0.9786729216575623,
					0.6431110501289368,
					0.36741122603416443,
					1
				],
				"metallicFactor":0
			}
		}
	],
	"meshes":[
		{
			"name":"Mesh plateDinner",
			"primitives":[
				{
					"attributes":{
						"POSITION":0,
						"TEXCOORD_0":1,
						"NORMAL":2
					},
					"indices":3,
					"material":0
				},
				{
					"attributes":{
						"POSITION":4,
						"TEXCOORD_0":5,
						"NORMAL":6
					},
					"indices":7,
					"material":1
				},
				{
					"attributes":{
						"POSITION":8,
						"TEXCOORD_0":9,
						"NORMAL":10
					},
					"indices":11,
					"material":2
				},
				{
					"attributes":{
						"POSITION":12,
						"TEXCOORD_0":13,
						"NORMAL":14
					},
					"indices":15,
					"material":3
				},
				{
					"attributes":{
						"POSITION":16,
						"TEXCOORD_0":17,
						"NORMAL":18
					},
					"indices":19,
					"material":4
				}
			]
		}
	],
	"accessors":[
		{
			"bufferView":0,
			"componentType":5126,
			"count":208,
			"max":[
				0.24367406964302063,
				0.221358984708786,
				0.2843901515007019
			],
			"min":[
				-0.21449603140354156,
				0.07270299643278122,
				0.0359901525080204
			],
			"type":"VEC3"
		},
		{
			"bufferView":1,
			"componentType":5126,
			"count":208,
			"type":"VEC2"
		},
		{
			"bufferView":2,
			"componentType":5126,
			"count":208,
			"type":"VEC3"
		},
		{
			"bufferView":3,
			"componentType":5123,
			"count":324,
			"type":"SCALAR"
		},
		{
			"bufferView":4,
			"componentType":5126,
			"count":390,
			"max":[
				0.4458869695663452,
				0.08999999612569809,
				0.4458869695663452
			],
			"min":[
				-0.4458869695663452,
				0,
				-0.4458869695663452
			],
			"type":"VEC3"
		},
		{
			"bufferView":5,
			"componentType":5126,
			"count":390,
			"type":"VEC2"
		},
		{
			"bufferView":6,
			"componentType":5126,
			"count":390,
			"type":"VEC3"
		},
		{
			"bufferView":7,
			"componentType":5123,
			"count":390,
			"type":"SCALAR"
		},
		{
			"bufferView":8,
			"componentType":5126,
			"count":39,
			"max":[
				0.32930341362953186,
				0.07270299643278122,
				0.32930341362953186
			],
			"min":[
				-0.32930341362953186,
				0.07270299643278122,
				-0.32930341362953186
			],
			"type":"VEC3"
		},
		{
			"bufferView":9,
			"componentType":5126,
			"count":39,
			"type":"VEC2"
		},
		{
			"bufferView":10,
			"componentType":5126,
			"count":39,
			"type":"VEC3"
		},
		{
			"bufferView":11,
			"componentType":5123,
			"count":135,
			"type":"SCALAR"
		},
		{
			"bufferView":12,
			"componentType":5126,
			"count":86,
			"max":[
				0.2903074026107788,
				0.1327029913663864,
				-0.029922697693109512
			],
			"min":[
				-0.14345893263816833,
				0.07270299643278122,
				-0.23645223677158356
			],
			"type":"VEC3"
		},
		{
			"bufferView":13,
			"componentType":5126,
			"count":86,
			"type":"VEC2"
		},
		{
			"bufferView":14,
			"componentType":5126,
			"count":86,
			"type":"VEC3"
		},
		{
			"bufferView":15,
			"componentType":5123,
			"count":156,
			"type":"SCALAR"
		},
		{
			"bufferView":16,
			"componentType":5126,
			"count":47,
			"max":[
				0.11826464533805847,
				0.1327029913663864,
				0.04489115625619888
			],
			"min":[
				-0.29765987396240234,
				0.07270299643278122,
				-0.29765987396240234
			],
			"type":"VEC3"
		},
		{
			"bufferView":17,
			"componentType":5126,
			"count":47,
			"type":"VEC2"
		},
		{
			"bufferView":18,
			"componentType":5126,
			"count":47,
			"type":"VEC3"
		},
		{
			"bufferView":19,
			"componentType":5123,
			"count":111,
			"type":"SCALAR"
		}
	],
	"bufferViews":[
		{
			"buffer":0,
			"byteLength":2496,
			"byteOffset":0,
			"target":34962
		},
		{
			"buffer":0,
			"byteLength":1664,
			"byteOffset":2496,
			"target":34962
		},
		{
			"buffer":0,
			"byteLength":2496,
			"byteOffset":4160,
			"target":34962
		},
		{
			"buffer":0,
			"byteLength":648,
			"byteOffset":6656,
			"target":34963
		},
		{
			"buffer":0,
			"byteLength":4680,
			"byteOffset":7304,
			"target":34962
		},
		{
			"buffer":0,
			"byteLength":3120,
			"byteOffset":11984,
			"target":34962
		},
		{
			"buffer":0,
			"byteLength":4680,
			"byteOffset":15104,
			"target":34962
		},
		{
			"buffer":0,
			"byteLength":780,
			"byteOffset":19784,
			"target":34963
		},
		{
			"buffer":0,
			"byteLength":468,
			"byteOffset":20564,
			"target":34962
		},
		{
			"buffer":0,
			"byteLength":312,
			"byteOffset":21032,
			"target":34962
		},
		{
			"buffer":0,
			"byteLength":468,
			"byteOffset":21344,
			"target":34962
		},
		{
			"buffer":0,
			"byteLength":270,
			"byteOffset":21812,
			"target":34963
		},
		{
			"buffer":0,
			"byteLength":1032,
			"byteOffset":22084,
			"target":34962
		},
		{
			"buffer":0,
			"byteLength":688,
			"byteOffset":23116,
			"target":34962
		},
		{
			"buffer":0,
			"byteLength":1032,
			"byteOffset":23804,
			"target":34962
		},
		{
			"buffer":0,
			"byteLength":312,
			"byteOffset":24836,
			"target":34963
		},
		{
			"buffer":0,
			"byteLength":564,
			"byteOffset":25148,
			"target":34962
		},
		{
			"buffer":0,
			"byteLength":376,
			"byteOffset":25712,
			"target":34962
		},
		{
			"buffer":0,
			"byteLength":564,
			"byteOffset":26088,
			"target":34962
		},
		{
			"buffer":0,
			"byteLength":222,
			"byteOffset":26652,
			"target":34963
		}
	],
	"buffers":[
		{
			"byteLength":26876,
			"uri":"data:application/octet-stream;base64,"
		}
	]
}
